<svg xmlns="http://www.w3.org/2000/svg" xmlns:xlink="http://www.w3.org/1999/xlink" version="1.1" x="0px" y="0px" viewBox="0 0 100 125" enable-background="new 0 0 100 100" xml:space="preserve"><path d="M84.812,43.656c-0.345,3.159,0.54,4.805,2.022,5.521c-0.264,0.535-0.67,1.127-1.278,1.76  c-2.326,2.42-9.743-5.213-11.251-6.812c-0.021-0.024-0.045-0.047-0.064-0.071c-0.012-0.016-0.032-0.032-0.045-0.048  c-1.782-1.973-3.706-3.843-5.667-5.331c1.953,0,3.715-0.256,4.555-1.04c0.312-0.292,0.562-0.574,0.756-0.847  c4.86,4.253,7.502-4.81,7.502-4.81s-13.675-2.048-8.304,4.008c0.085,0.096,0.17,0.188,0.255,0.275  c-0.166,0.199-0.363,0.412-0.582,0.637c-0.979,0.989-2.98,1.221-5.053,1.143c-4.939-3.445-10.026-4.238-13.692,1.949  c-0.203-0.076-0.432-0.145-0.678-0.207c-0.793-0.197-1.684,0.081-2.615,0.689c1.548-3.412,5.002-10.123,7.79-9.122  c1.315,0.471,2.13,1.043,2.63,1.592l0.002,0.001c0.349,0.383,0.548,0.751,0.664,1.062c0.04,0.116,0.067,0.225,0.091,0.324v0  c2.849,2.127,11.854-6.955,11.854-6.955S61.325,22.478,61,31.492c-0.006,0.209-0.006,0.409,0,0.595  c-0.542-0.908-1.416-1.792-2.819-2.198c-3.48-1.016-9.315,11.988-9.315,11.988l0.065,0.034c-0.699,0.687-1.406,1.499-2.096,2.377  c0.984-3.519,1.877-7.897,0.993-9.994l0.063-0.01c0,0-3.208-14.538-7.174-14.575c-0.823-0.007-1.527,0.151-2.124,0.408  c-1.219-11.21-15.392,0.659-15.392,0.659s6.299,4.829,10.859,5.448C24.779,28.563,11.611,39.52,11.611,39.52  s29.829,17.699,31.356-4.831c0.037-0.567,0.053-1.1,0.049-1.605c0.73,0.086,1.656,0.383,2.804,1.057  c2.782,1.626,0.404,9.187-0.958,12.858v0.001c-0.021,0.057-0.044,0.111-0.063,0.167c-0.018,0-0.035,0-0.051,0  c-10.704,0.358-19.071,3.451-19.071,7.226c0,0.343,0.204,1.011,0.204,1.011s1.076-5.584,16.176-6.363  c-3.854,2.063-11.663,6.008-16.074,6.583c-0.019,0.004-0.036,0.004-0.052,0.006v0.002c-1.395,0.173-2.442,0.004-2.905-0.673  c-0.631-0.922-0.997-1.755-1.192-2.481c0.296-0.765,0.528-1.625,0.684-2.593c2.403-14.657-21.766,5.011-21.766,5.011  s15.526,7.738,20.498-1.167c0.085,1.02,0.402,2.072,1.134,3.009c0.555,0.703,1.971,0.693,3.831,0.258l0.887,4.271  c-3.289,3.191-6.744,5.765-8.395,4.511c-0.919-0.7-1.562-1.409-2.005-2.075c0.046-0.201,0.087-0.411,0.122-0.629  c1.8-10.986-16.312,3.753-16.312,3.753s12.92,6.435,15.888-2.061c0.429,1.155,1.138,2.289,2.307,3.061  c0.377,0.248,0.912,0.263,1.562,0.091c-1.606,2.87-4.791,7.953-6.558,6.61c-0.536-0.407-0.931-0.821-1.219-1.214  c0.167-1.311-0.135-2.017-0.728-2.299c-0.005,0.136-0.009,0.318-0.005,0.545c-0.026-0.23-0.023-0.42-0.012-0.553  c-2.518-1.161-10.178,5.075-10.178,5.075s9.102,4.532,10.752-1.869c0.291,0.642,0.73,1.246,1.39,1.683  c1.924,1.268,6.318-5.984,7.722-8.42c1.711-0.812,3.892-2.438,6.053-4.37l4.914,23.654c0,2.735,6.458,4.946,14.42,4.946  c7.958,0,14.417-2.211,14.417-4.946l4.053-19.496c0.755,1.126,1.567,1.948,2.327,1.908c0.718-0.041,1.253-0.274,1.649-0.581  c-6.357,9.103,9.353,10.782,9.353,10.782s-0.813-20.901-8.452-11.943c0.012-0.028,0.023-0.054,0.033-0.08  c-0.233,0.382-0.821,0.886-2.301,1.048c-0.871,0.097-1.714-0.755-2.448-1.904l0,0l1.242-5.978C75.198,60.05,83.938,57.2,83.938,57.2  s-2.147-3.613-5.384-7.896c2.841,2.271,6.053,4.3,7.335,3.122c0.972-0.888,1.366-2,1.487-3.036  c4.241,1.332,12.112-3.306,12.112-3.306S86.095,31.816,84.812,43.656z M75.271,37.066c-0.094-0.094-0.232-0.141-0.321-0.243  c-0.08-0.09-0.141-0.19-0.219-0.283c-0.042-0.054-0.057-0.108-0.046-0.153c-0.025-0.024-0.049-0.047-0.069-0.071  c-0.186-0.199,0.137-0.393,0.322-0.191c0.077,0.079,0.151,0.152,0.232,0.223c0.062,0.034,0.116,0.074,0.155,0.125  c0.058,0.073,0.057,0.154,0.016,0.211c0.089,0.06,0.178,0.112,0.253,0.188C75.788,37.066,75.468,37.26,75.271,37.066z   M76.476,37.248c-0.101-0.042-0.198-0.091-0.296-0.136c-0.096-0.039-0.14-0.106-0.144-0.172c-0.335-0.295-0.58-0.659-0.942-0.938  c-0.222-0.171,0.012-0.438,0.238-0.267c0.481,0.375,0.774,0.914,1.329,1.218C76.883,37.076,76.701,37.347,76.476,37.248z   M77.055,36.976c-0.062-0.038-0.131-0.084-0.172-0.14c-0.043-0.054-0.085-0.132-0.155-0.163c-0.144-0.065-0.267-0.122-0.381-0.225  c-0.066-0.056-0.073-0.118-0.045-0.169c-0.082-0.054-0.164-0.104-0.241-0.156c-0.088-0.059-0.117-0.147-0.092-0.22  c0.104-0.282,0.433-0.145,0.688-0.032c0.157,0.068,0.174,0.209,0.104,0.29c0.02,0.012,0.036,0.022,0.053,0.036  c0.068,0.049,0.097,0.122,0.091,0.185c0.062,0.027,0.119,0.057,0.167,0.104c0.079,0.077,0.123,0.166,0.223,0.224  C77.54,36.855,77.299,37.119,77.055,36.976z M80.335,33.569c-0.016,0.019-0.03,0.037-0.046,0.052  c-0.103,0.117-0.167,0.252-0.214,0.396c-0.051,0.153-0.061,0.343-0.14,0.48c-0.148,0.26-0.447,0.279-0.738,0.389  c-0.108,0.04-0.209-0.011-0.26-0.086c-0.114-0.038-0.207-0.135-0.144-0.24c0.135-0.239,0.43-0.333,0.576-0.558  c0.086-0.139,0.156-0.273,0.283-0.383c0.096-0.08,0.186-0.158,0.271-0.245c0.016-0.019,0.032-0.038,0.048-0.054  C80.138,33.156,80.485,33.395,80.335,33.569z M78.448,33.294c0.071-0.194,0.071-0.418,0.193-0.593  c0.047-0.073,0.113-0.139,0.206-0.174c-0.024-0.071,0.001-0.146,0.058-0.186c0.159-0.109,0.45-0.183,0.651-0.019  c0.004,0,0.004,0.002,0.004,0.004c0.109-0.043,0.23-0.073,0.375-0.082c0.269-0.021,0.359,0.346,0.092,0.365  c-0.521,0.039-0.741,0.478-1.071,0.739c-0.012,0.01-0.026,0.016-0.038,0.023c-0.021,0.029-0.04,0.061-0.059,0.093  C78.752,33.66,78.367,33.507,78.448,33.294z M78.496,34.5c-0.019,0.031-0.036,0.062-0.055,0.091  c-0.034,0.066-0.104,0.092-0.178,0.089c-0.009,0.01-0.026,0.021-0.042,0.033c-0.07,0.06-0.141,0.122-0.226,0.172  c-0.178,0.106-0.407,0.141-0.6-0.043c-0.179-0.174,0.07-0.348,0.265-0.24c0.004-0.005,0.014-0.008,0.028-0.015  c0.056-0.037,0.113-0.077,0.165-0.119c0.105-0.083,0.203-0.175,0.339-0.228C78.348,34.18,78.569,34.371,78.496,34.5z M76.746,33.294  c0.076-0.149,0.17-0.281,0.302-0.394c0.007-0.006,0.012-0.007,0.017-0.01c-0.098-0.063-0.157-0.174-0.085-0.265  c0.149-0.189,0.395-0.28,0.602-0.419c0.125-0.082,0.349,0.034,0.358,0.174c0.161-0.004,0.354,0.173,0.234,0.308  c-0.23,0.27-0.467,0.539-0.682,0.816c-0.108,0.139-0.223,0.276-0.29,0.433c-0.054,0.126-0.1,0.257-0.155,0.38  c-0.071,0.14-0.305,0.12-0.401-0.031C76.443,33.969,76.604,33.558,76.746,33.294z M76.653,34.755  c0.187,0.133,0.419,0.167,0.627,0.257c0.048-0.036,0.119-0.05,0.209-0.021c0.289,0.101,0.584,0.196,0.882,0.264  c0.254,0.058,0.521,0.052,0.774,0.127c0.195,0.055,0.267,0.227,0.136,0.333c-0.333,0.265-0.862,0.253-1.327,0.074  c-0.225-0.082-0.45-0.2-0.636-0.343c-0.151-0.118-0.335-0.176-0.516-0.238c0.183,0.256,0.525,0.48,0.768,0.674  c0.166,0.135,0.771,0.536,0.477,0.712c-0.128,0.079-0.289-0.013-0.341-0.123c-0.003-0.003-0.004-0.007-0.008-0.008  c-0.024-0.026-0.054-0.049-0.079-0.072c-0.063-0.058-0.127-0.11-0.191-0.166c-0.102-0.082-0.206-0.165-0.303-0.248  c-0.285-0.23-0.664-0.497-0.793-0.812c-0.034-0.078-0.009-0.142,0.038-0.185C76.226,34.816,76.443,34.602,76.653,34.755z   M75.278,34.37c0.058-0.317,0.233-0.575,0.408-0.841c0.144-0.217,0.289-0.448,0.282-0.717c-0.038-0.052-0.059-0.11-0.033-0.164  l0.024-0.066c0.035-0.079,0.124-0.103,0.213-0.091c0.226-0.059,0.406,0.237,0.229,0.335c0.016,0.285-0.092,0.537-0.239,0.778  c-0.086,0.139-0.193,0.278-0.276,0.421c0.069,0.066,0.101,0.155,0.032,0.231c-0.079,0.093-0.152,0.191-0.239,0.277  C75.558,34.643,75.241,34.556,75.278,34.37z M74.604,32.48c0.038-0.027,0.085-0.035,0.125-0.031c0.019-0.033,0.039-0.069,0.057-0.1  c0.114-0.194,0.527-0.025,0.412,0.17c-0.148,0.254-0.264,0.521-0.374,0.79c-0.093,0.215-0.22,0.428-0.249,0.662  c-0.02,0.127-0.016,0.253,0.041,0.387c0.043,0.101,0.086,0.199,0.097,0.303c0.024,0.202-0.101,0.315-0.23,0.436  c-0.032,0.031-0.063,0.06-0.092,0.091c-0.079,0.088-0.242,0.062-0.335-0.019c-0.04-0.037-0.065-0.087-0.062-0.144  c0.035-0.428,0.114-0.844,0.122-1.274c-0.033-0.044-0.053-0.07-0.058-0.079c0.009,0.005,0.027,0.021,0.058,0.048  c0-0.039,0-0.083,0-0.124C74.104,33.135,74.19,32.75,74.604,32.48z M73.42,33.265c0.007-0.105,0.023-0.21,0.044-0.313  c-0.001-0.034,0.007-0.065,0.022-0.089c0.031-0.106,0.065-0.211,0.105-0.312c0.085-0.21,0.495-0.04,0.411,0.168  c-0.04,0.102-0.072,0.204-0.102,0.306c0.041,0.206,0.088,0.426,0.003,0.607c-0.015,0.028-0.027,0.058-0.038,0.087  c0.002,0.196-0.017,0.379-0.073,0.567c-0.067,0.213-0.474,0.045-0.411-0.172c0.024-0.087-0.015-0.177-0.011-0.266  c0.007-0.085,0.022-0.164,0.051-0.24C73.42,33.497,73.414,33.381,73.42,33.265z M73.052,34.906  c-0.261-0.159-0.327-0.432-0.327-0.663c0-0.114,0.012-0.225,0.019-0.338c0.015-0.163-0.047-0.327-0.07-0.491  c-0.03-0.235,0.391-0.253,0.423-0.019c0.04,0.253,0.092,0.478,0.07,0.726c-0.01,0.147-0.062,0.404,0.127,0.517  C73.536,34.786,73.297,35.053,73.052,34.906z M62.932,32.502c-0.008,0.112-0.093,0.221-0.189,0.291  c0.034,0.094,0.073,0.18,0.077,0.294c0.014,0.293-0.519,0.503-0.53,0.211c-0.007-0.142-0.107-0.226-0.102-0.378  c0.007-0.135,0.043-0.278,0.053-0.418c0.006-0.08,0.045-0.155,0.099-0.215c0-0.034,0-0.069,0-0.105c0-0.297,0.532-0.507,0.528-0.21  c0,0.12,0.01,0.232,0.028,0.341C62.926,32.366,62.939,32.429,62.932,32.502z M63.375,33.732c-0.064-0.075-0.116-0.154-0.181-0.228  c-0.057-0.071-0.036-0.167,0.021-0.255c-0.058-0.453,0.043-0.981-0.066-1.417c-0.064-0.263,0.452-0.589,0.515-0.321  c0.145,0.582-0.081,1.353,0.2,1.853C63.975,33.564,63.519,33.901,63.375,33.732z M64.755,32.309  c0.004,0.021,0.012,0.037,0.016,0.058c0.022,0.078-0.018,0.182-0.084,0.263c0.038,0.045,0.068,0.096,0.072,0.167  c0.004,0.118-0.036,0.244,0.008,0.337c0.121,0.234-0.395,0.554-0.512,0.323c-0.032-0.062-0.055-0.133-0.048-0.217  c0.014-0.078,0.046-0.191,0.004-0.245c-0.087-0.111-0.162-0.204-0.182-0.361c-0.013-0.087,0.044-0.174,0.12-0.239  c-0.035-0.082-0.072-0.163-0.101-0.249c-0.032-0.088,0.022-0.214,0.123-0.307c0.388-0.367,0.595-0.13,0.757,0.066  C65.021,32.018,64.904,32.211,64.755,32.309z M67.845,32.098c-0.611,0.307-1.154,0.209-1.473-0.105  c-0.151-0.147-0.276-0.339-0.326-0.562c-0.047-0.184-0.182-0.289-0.312-0.401c-0.056,0.372,0.081,0.73,0.146,1.03  c0.04,0.209,0.284,0.843-0.201,1.036c-0.212,0.083-0.293-0.063-0.238-0.22v-0.012c-0.004-0.039-0.006-0.074-0.01-0.111  c-0.012-0.083-0.026-0.168-0.043-0.25c-0.023-0.128-0.048-0.256-0.076-0.383c-0.068-0.358-0.204-0.774-0.032-1.221  c0.042-0.111,0.133-0.195,0.226-0.243c0.013-0.245,0.452-0.502,0.524-0.26c0.057,0.208,0.272,0.289,0.403,0.443  c0.089-0.039,0.178-0.046,0.238,0.008c0.205,0.178,0.424,0.356,0.674,0.492c0.209,0.119,0.493,0.153,0.686,0.291  C68.183,31.734,68.09,31.976,67.845,32.098z M68.218,30.337c-0.047,0.039-0.097,0.076-0.147,0.115  c-0.101,0.083-0.193,0.105-0.271,0.091c-0.023,0.011-0.049,0.024-0.076,0.037c-0.138,0.07-0.274,0.144-0.412,0.197  c-0.29,0.118-0.568,0.128-0.586-0.151c-0.017-0.265,0.413-0.458,0.514-0.282c0.009-0.002,0.021-0.008,0.042-0.017  c0.097-0.038,0.196-0.085,0.295-0.134c0.191-0.095,0.381-0.207,0.579-0.254C68.377,29.883,68.421,30.172,68.218,30.337z   M71.075,29.368c-0.032,0.022-0.066,0.041-0.102,0.062c-0.221,0.142-0.421,0.313-0.616,0.503c-0.201,0.196-0.399,0.454-0.619,0.627  c-0.412,0.325-0.749,0.306-1.162,0.406c-0.155,0.041-0.207-0.046-0.189-0.158c-0.08-0.067-0.078-0.212,0.087-0.345  c0.375-0.296,0.782-0.382,1.157-0.666c0.226-0.169,0.437-0.343,0.678-0.47c0.181-0.094,0.352-0.186,0.529-0.29  c0.031-0.022,0.067-0.045,0.104-0.065C71.275,28.776,71.406,29.156,71.075,29.368z M70.534,27.725  c0.046-0.097,0.149-0.195,0.246-0.238c0.278-0.123,0.655-0.178,0.708,0.075c0,0.002,0,0.002,0,0.006  c0.155-0.042,0.313-0.062,0.474-0.053c0.305,0.017,0.037,0.524-0.261,0.506c-0.585-0.03-1.255,0.531-1.86,0.831  c-0.024,0.013-0.044,0.019-0.066,0.023c-0.051,0.042-0.099,0.081-0.151,0.12c-0.307,0.249-0.561-0.017-0.264-0.292  c0.268-0.254,0.489-0.552,0.793-0.773C70.271,27.839,70.404,27.762,70.534,27.725z M68.474,27.568  c0.345-0.23,0.692-0.316,1.042-0.468c0.216-0.091,0.337,0.097,0.208,0.289c0.178,0.017,0.2,0.29-0.057,0.455  c-0.508,0.327-1.02,0.651-1.524,0.995c-0.25,0.17-0.504,0.333-0.731,0.539c-0.18,0.162-0.357,0.329-0.541,0.486  c-0.209,0.179-0.438,0.113-0.389-0.105c0.101-0.46,0.678-0.988,1.084-1.322c0.23-0.19,0.454-0.352,0.708-0.484  c0.011-0.005,0.019-0.009,0.027-0.014C68.26,27.839,68.309,27.682,68.474,27.568z M67.228,27.663  c0.006-0.075,0.044-0.158,0.125-0.228l0.089-0.083c0.11-0.1,0.235-0.122,0.312-0.089c0.298-0.046,0.195,0.382-0.091,0.486  c-0.263,0.39-0.622,0.713-1.013,1.014c-0.233,0.177-0.479,0.345-0.714,0.527c0.013,0.095-0.044,0.223-0.191,0.315  c-0.176,0.112-0.35,0.232-0.528,0.336c-0.236,0.131-0.478-0.037-0.259-0.283c0.374-0.419,0.813-0.741,1.257-1.069  C66.586,28.317,66.969,28.027,67.228,27.663z M66.275,26.981c0.053-0.044,0.105-0.086,0.157-0.127  c0.312-0.243,0.583,0.049,0.266,0.294c-0.402,0.318-0.79,0.664-1.173,1.01c-0.307,0.273-0.651,0.541-0.92,0.854  c-0.139,0.17-0.267,0.339-0.337,0.529c-0.054,0.143-0.103,0.281-0.191,0.422c-0.216,0.345-0.54,0.464-0.861,0.664  c-0.248,0.153-0.449-0.044-0.258-0.282c0.514-0.637,1.071-1.258,1.539-1.912c0.441-0.62,0.917-1.13,1.615-1.429  C66.179,26.975,66.235,26.968,66.275,26.981z M64.089,27.88c0.114-0.145,0.234-0.281,0.357-0.415c0.032-0.052,0.07-0.091,0.115-0.12  c0.135-0.14,0.274-0.277,0.419-0.407c0.295-0.269,0.562,0.024,0.267,0.293c-0.144,0.128-0.276,0.263-0.407,0.396  c-0.162,0.283-0.335,0.592-0.6,0.819c-0.042,0.039-0.086,0.077-0.126,0.112c-0.192,0.265-0.396,0.51-0.639,0.751  c-0.283,0.284-0.544-0.01-0.266-0.292c0.111-0.112,0.161-0.242,0.254-0.36c0.091-0.113,0.184-0.216,0.291-0.313  C63.864,28.189,63.971,28.033,64.089,27.88z M62.396,29.089c0.11-0.155,0.234-0.3,0.351-0.452c0.174-0.219,0.274-0.446,0.412-0.678  c0.195-0.319,0.661-0.278,0.463,0.046c-0.209,0.347-0.376,0.657-0.643,0.988c-0.159,0.197-0.464,0.538-0.38,0.721  c0.111,0.237-0.4,0.556-0.514,0.322C61.964,29.781,62.165,29.403,62.396,29.089z M37.472,22.331  c0.188,0.411-0.019,0.841-0.269,1.175c-0.122,0.164-0.259,0.311-0.389,0.467c-0.191,0.228-0.286,0.498-0.437,0.753  c-0.201,0.357-0.788,0.089-0.581-0.27c0.219-0.385,0.391-0.742,0.681-1.083c0.174-0.203,0.519-0.534,0.389-0.825  C36.694,22.167,37.304,21.953,37.472,22.331z M37.747,32.891c0.135,0.697-1.146,1.293-1.281,0.589  c-0.296-1.522,0.315-3.364-0.331-4.745c-0.258-0.553,0.893-1.202,1.221-0.716c0.146,0.214,0.272,0.443,0.417,0.654  c0.14,0.199,0.083,0.435-0.066,0.631C37.812,30.466,37.526,31.756,37.747,32.891z M36.169,17.765  c-0.052-0.413,0.589-0.465,0.645-0.05c0.023,0.195,0.159,0.361,0.17,0.569c0.008,0.186-0.02,0.367-0.013,0.551  c0,0.11-0.036,0.198-0.102,0.255c0.005,0.05,0.011,0.1,0.015,0.147c0.034,0.415-0.606,0.469-0.642,0.053  c-0.011-0.167-0.033-0.324-0.07-0.482c-0.048-0.088-0.073-0.186-0.073-0.285c0-0.149,0.093-0.262,0.207-0.313  C36.249,18.065,36.188,17.924,36.169,17.765z M35.392,16.618c0.083,0.132,0.163,0.268,0.253,0.398  c0.082,0.122,0.068,0.248,0.009,0.345c0.126,0.653,0.069,1.344,0.255,1.994c0.114,0.397-0.492,0.616-0.606,0.215  c-0.249-0.869-0.064-1.84-0.479-2.661C34.657,16.581,35.192,16.322,35.392,16.618z M33.806,17.886  c-0.036-0.119,0.002-0.245,0.076-0.33c-0.052-0.082-0.099-0.165-0.112-0.263c-0.021-0.165,0.016-0.319-0.055-0.473  c-0.174-0.377,0.43-0.59,0.606-0.215c0.044,0.102,0.083,0.209,0.083,0.321c-0.002,0.105-0.029,0.243,0.03,0.339  c0.122,0.192,0.228,0.356,0.269,0.582c0.028,0.128-0.028,0.222-0.12,0.278c0.056,0.13,0.11,0.259,0.159,0.393  c0.052,0.135-0.003,0.284-0.117,0.372c-0.442,0.331-0.735-0.092-0.958-0.434c-0.134-0.203-0.006-0.416,0.166-0.486  C33.825,17.941,33.816,17.914,33.806,17.886z M29.978,16.866c0.732-0.15,1.427,0.233,1.861,0.81  c0.212,0.276,0.391,0.597,0.487,0.934c0.076,0.273,0.26,0.48,0.436,0.695c0.026-0.49-0.191-1.049-0.306-1.494  c-0.079-0.308-0.462-1.297,0.119-1.348c0.258-0.021,0.378,0.219,0.332,0.414c0,0.005,0.001,0.01,0.001,0.018  c0.006,0.052,0.014,0.105,0.027,0.156c0.022,0.124,0.052,0.246,0.083,0.369c0.046,0.188,0.094,0.376,0.139,0.563  c0.131,0.528,0.355,1.17,0.191,1.712c-0.039,0.133-0.139,0.208-0.251,0.234c0.022,0.335-0.502,0.49-0.621,0.126  c-0.104-0.319-0.38-0.532-0.568-0.799c-0.105,0.015-0.216-0.018-0.299-0.118c-0.282-0.341-0.575-0.684-0.901-0.985  c-0.286-0.261-0.645-0.436-0.907-0.718C29.6,17.22,29.686,16.925,29.978,16.866z M29.729,19.142c0.054-0.032,0.113-0.06,0.171-0.093  c0.117-0.067,0.232-0.056,0.33-0.002c0.028-0.007,0.063-0.01,0.09-0.019c0.163-0.033,0.325-0.073,0.49-0.087  c0.354-0.03,0.701,0.082,0.759,0.474c0.052,0.374-0.463,0.451-0.612,0.161c-0.009,0-0.025,0-0.052,0.004  c-0.117,0.007-0.232,0.028-0.35,0.054c-0.23,0.048-0.459,0.11-0.697,0.089C29.586,19.7,29.492,19.279,29.729,19.142z M26.258,19.197  c0.041-0.013,0.081-0.027,0.12-0.039c0.261-0.097,0.492-0.244,0.714-0.42c0.229-0.184,0.445-0.447,0.7-0.59  c0.477-0.266,0.9-0.088,1.409-0.043c0.188,0.018,0.266,0.161,0.254,0.306c0.114,0.133,0.131,0.335-0.062,0.439  c-0.437,0.246-0.939,0.177-1.373,0.401c-0.263,0.135-0.505,0.281-0.795,0.349c-0.211,0.048-0.42,0.096-0.624,0.165  c-0.04,0.013-0.084,0.027-0.125,0.042C26.083,19.926,25.867,19.345,26.258,19.197z M27.142,21.723  c-0.044,0.114-0.164,0.201-0.284,0.217c-0.326,0.048-0.8-0.048-0.895-0.42c0-0.006,0-0.006,0-0.009  c-0.189-0.015-0.388-0.057-0.587-0.142c-0.386-0.159-0.116-0.743,0.266-0.584c0.737,0.307,1.511-0.17,2.229-0.313  c0.03-0.006,0.056-0.004,0.082-0.004c0.06-0.029,0.118-0.063,0.173-0.097c0.356-0.201,0.708,0.277,0.372,0.529  c-0.308,0.23-0.55,0.544-0.896,0.716C27.458,21.683,27.303,21.732,27.142,21.723z M29.752,22.87c-0.4,0.169-0.829,0.126-1.251,0.179  c-0.262,0.034-0.438-0.284-0.3-0.492c-0.223-0.104-0.285-0.494,0.017-0.604c0.598-0.228,1.201-0.446,1.792-0.694  c0.291-0.124,0.596-0.237,0.853-0.417c0.205-0.143,0.405-0.297,0.618-0.431c0.243-0.155,0.536,0.038,0.503,0.321  c-0.069,0.591-0.725,1.069-1.196,1.347c-0.267,0.158-0.531,0.284-0.834,0.352c-0.012,0-0.02,0-0.028,0.006  C29.985,22.59,29.947,22.788,29.752,22.87z M31.305,23.304c0,0.101-0.038,0.199-0.127,0.26l-0.103,0.075  c-0.127,0.09-0.279,0.065-0.382-0.019c-0.369-0.069-0.292-0.615,0.055-0.632c0.283-0.422,0.693-0.708,1.152-0.947  c0.266-0.14,0.554-0.267,0.827-0.413c-0.027-0.138,0.027-0.288,0.2-0.351c0.21-0.076,0.412-0.167,0.623-0.229  c0.276-0.074,0.604,0.268,0.358,0.509c-0.417,0.416-0.925,0.66-1.448,0.916C32.03,22.683,31.588,22.915,31.305,23.304z   M32.585,24.679c-0.062,0.037-0.123,0.071-0.184,0.104c-0.358,0.195-0.733-0.33-0.372-0.529c0.474-0.259,0.911-0.563,1.353-0.869  c0.352-0.242,0.752-0.457,1.046-0.77c0.16-0.173,0.293-0.354,0.36-0.585c0.05-0.174,0.097-0.342,0.191-0.495  c0.226-0.381,0.617-0.403,1-0.533c0.295-0.103,0.569,0.263,0.353,0.511c-0.563,0.648-1.188,1.256-1.695,1.957  c-0.476,0.66-1.009,1.153-1.851,1.253C32.707,24.732,32.639,24.715,32.585,24.679z M33.847,24.794  c0.163-0.116,0.319-0.236,0.464-0.367c0.167-0.319,0.345-0.666,0.648-0.866c0.05-0.033,0.1-0.064,0.149-0.096  c0.206-0.282,0.427-0.536,0.701-0.76c0.052-0.04,0.101-0.061,0.15-0.068c0.004,0,0.008-0.002,0.013-0.002  c0.264-0.025,0.472,0.38,0.21,0.601c-0.124,0.104-0.174,0.262-0.275,0.383c-0.099,0.118-0.201,0.22-0.325,0.306  c-0.117,0.166-0.231,0.333-0.362,0.492c-0.125,0.149-0.257,0.286-0.397,0.416c-0.034,0.055-0.082,0.092-0.127,0.116  c-0.155,0.133-0.312,0.254-0.479,0.373C33.882,25.562,33.512,25.034,33.847,24.794z M33.871,30.998  c-0.011-0.046-0.024-0.097-0.034-0.145c-0.047-0.21,0.057-0.45,0.23-0.629c-0.085-0.132-0.16-0.273-0.163-0.453  c-0.001-0.295,0.109-0.591,0-0.85c-0.263-0.639,1.021-1.222,1.28-0.588c0.071,0.168,0.124,0.359,0.094,0.563  c-0.027,0.193-0.122,0.462-0.021,0.615c0.205,0.315,0.375,0.584,0.412,0.985c0.026,0.23-0.118,0.418-0.313,0.55  c0.078,0.221,0.162,0.443,0.231,0.669c0.07,0.236-0.078,0.528-0.333,0.722c-0.974,0.749-1.466,0.063-1.837-0.493  C33.195,31.613,33.503,31.182,33.871,30.998z M26.311,30.185c1.517-0.505,2.833-0.021,3.582,0.902  c0.36,0.444,0.648,0.975,0.761,1.562c0.09,0.481,0.416,0.803,0.716,1.144c0.172-0.907-0.136-1.869-0.261-2.652  c-0.085-0.542-0.627-2.243,0.571-2.517c0.526-0.12,0.708,0.287,0.568,0.658v0.03c0,0.094,0.004,0.188,0.014,0.281  c0.018,0.218,0.048,0.434,0.081,0.647c0.05,0.333,0.101,0.667,0.151,0.998c0.138,0.929,0.436,2.04-0.023,3.086  c-0.113,0.258-0.336,0.43-0.567,0.511c-0.042,0.613-1.139,1.062-1.293,0.428c-0.134-0.554-0.649-0.852-0.96-1.292  c-0.214,0.062-0.431,0.037-0.577-0.123c-0.495-0.541-1.002-1.076-1.594-1.529c-0.514-0.391-1.205-0.597-1.667-1.032  C25.456,30.954,25.704,30.387,26.311,30.185z M25.253,34.455c0.124-0.077,0.247-0.148,0.368-0.226  c0.251-0.163,0.492-0.178,0.669-0.108c0.064-0.022,0.13-0.042,0.192-0.064c0.34-0.115,0.679-0.24,1.014-0.316  c0.729-0.167,1.403-0.073,1.427,0.637c0.019,0.668-1.048,0.974-1.275,0.485c-0.025,0.004-0.057,0.011-0.111,0.022  c-0.242,0.057-0.483,0.129-0.722,0.211c-0.483,0.16-0.96,0.35-1.438,0.387C24.83,35.524,24.741,34.779,25.253,34.455z M18.197,35.65  c0.082-0.039,0.168-0.076,0.252-0.111c0.552-0.261,1.061-0.605,1.547-0.998c0.512-0.408,1.014-0.964,1.567-1.309  c1.034-0.64,1.847-0.444,2.865-0.521c0.382-0.028,0.508,0.209,0.454,0.48c0.192,0.209,0.176,0.572-0.24,0.833  c-0.944,0.587-1.943,0.617-2.884,1.167c-0.565,0.33-1.09,0.676-1.699,0.891c-0.438,0.154-0.872,0.312-1.303,0.5  c-0.089,0.042-0.175,0.08-0.264,0.118C17.664,37.047,17.37,36.042,18.197,35.65z M19.381,40.016  c-0.117,0.225-0.379,0.424-0.624,0.494c-0.682,0.189-1.614,0.162-1.716-0.495C17.04,40.008,17.04,40.004,17.04,40  c-0.382,0.032-0.768,0.016-1.159-0.075c-0.743-0.174-0.053-1.333,0.686-1.162c1.419,0.333,3.103-0.788,4.603-1.28  c0.057-0.019,0.11-0.028,0.159-0.034c0.128-0.076,0.255-0.151,0.381-0.232c0.771-0.487,1.37,0.285,0.625,0.855  c-0.681,0.519-1.242,1.175-1.993,1.599C20.032,39.845,19.706,39.986,19.381,40.016z M24.4,41.306  c-0.851,0.437-1.709,0.499-2.58,0.725c-0.535,0.14-0.819-0.387-0.491-0.812c-0.425-0.12-0.458-0.815,0.179-1.119  c1.271-0.605,2.549-1.197,3.807-1.84c0.621-0.319,1.259-0.622,1.833-1.036c0.454-0.332,0.896-0.676,1.358-0.99  c0.528-0.361,1.077-0.1,0.941,0.429c-0.282,1.116-1.728,2.198-2.752,2.86c-0.582,0.378-1.146,0.688-1.78,0.909  c-0.019,0.008-0.038,0.013-0.058,0.021C24.945,40.715,24.817,41.093,24.4,41.306z M27.456,41.611  c-0.026,0.185-0.127,0.379-0.321,0.521L26.9,42.3c-0.277,0.204-0.579,0.207-0.773,0.088c-0.729-0.014-0.438-1.042,0.266-1.186  c0.677-0.861,1.579-1.517,2.567-2.102c0.578-0.346,1.191-0.665,1.778-1.019c-0.018-0.247,0.128-0.541,0.487-0.708  c0.447-0.208,0.876-0.441,1.327-0.619c0.58-0.228,1.16,0.298,0.601,0.825c-0.941,0.892-2.04,1.507-3.161,2.141  C29.074,40.243,28.119,40.808,27.456,41.611z M30.119,43.755c-0.166,0.043-0.298,0.033-0.395-0.016  c-0.135,0.085-0.273,0.169-0.402,0.251c-0.778,0.476-1.412-0.375-0.625-0.856c1.022-0.623,1.985-1.325,2.955-2.025  c0.767-0.558,1.636-1.082,2.305-1.751c0.367-0.367,0.684-0.743,0.872-1.185c0.141-0.333,0.278-0.663,0.505-0.977  c0.56-0.771,1.358-0.932,2.157-1.295c0.624-0.28,1.095,0.307,0.605,0.825c-1.31,1.375-2.724,2.689-3.918,4.138  C33.054,42.232,31.85,43.305,30.119,43.755z M35.13,42.428c-0.288,0.313-0.589,0.608-0.906,0.893  c-0.083,0.112-0.182,0.195-0.288,0.252c-0.338,0.289-0.691,0.568-1.056,0.837c-0.745,0.548-1.368-0.309-0.626-0.856  c0.357-0.265,0.702-0.534,1.026-0.818c0.418-0.64,0.863-1.337,1.529-1.802c0.111-0.076,0.219-0.15,0.328-0.224  c0.48-0.579,0.995-1.116,1.608-1.618c0.721-0.585,1.329,0.272,0.625,0.855c-0.278,0.234-0.415,0.541-0.649,0.796  c-0.228,0.247-0.464,0.47-0.735,0.667C35.711,41.748,35.435,42.095,35.13,42.428z M39.375,40.124c-0.287,0.335-0.6,0.653-0.904,0.98  c-0.441,0.48-0.701,1.008-1.062,1.523c-0.503,0.724-1.629,0.415-1.122-0.311c0.542-0.779,0.975-1.492,1.648-2.209  c0.402-0.426,1.18-1.147,0.987-1.643c-0.253-0.646,1.029-1.229,1.281-0.587C40.48,38.574,39.959,39.434,39.375,40.124z   M38.662,29.883c-0.004-0.744,1.308-1.04,1.315-0.297c0.002,0.357,0.24,0.617,0.211,0.992c-0.023,0.338-0.123,0.685-0.157,1.022  c-0.023,0.201-0.124,0.375-0.265,0.5c0,0.089-0.002,0.177-0.006,0.266c-0.029,0.75-1.345,1.052-1.316,0.298  c0.014-0.298,0.007-0.583-0.028-0.864c-0.07-0.148-0.107-0.317-0.08-0.5c0.037-0.273,0.255-0.511,0.494-0.642  C38.752,30.408,38.663,30.171,38.662,29.883z M40.734,33.723c0,0,0.217-0.278,0.718-0.476  C40.998,33.504,40.734,33.723,40.734,33.723z M43.008,32.624c-0.176-5.108-2.6-6.91-6.032-6.831c1.093-0.671,1.763-2.075,1.694-4.57  c0.411-0.079,0.877-0.135,1.404-0.159c3.403-0.164,5.589,8.364,6.349,11.904C45.165,32.36,43.974,32.384,43.008,32.624z   M18.197,46.449c-0.143-0.342,0.682-0.833,0.879-0.537c0.087,0.13,0.163,0.269,0.247,0.396c0.083,0.121,0.03,0.277-0.084,0.412  c0.004,0.747-0.269,1.597-0.188,2.319c0.052,0.44-0.861,0.901-0.914,0.457C18.027,48.531,18.557,47.301,18.197,46.449z   M16.511,48.048c-0.005-0.03-0.009-0.062-0.017-0.092c-0.018-0.132,0.068-0.293,0.198-0.421c-0.052-0.081-0.097-0.167-0.085-0.284  c0.017-0.189,0.109-0.388,0.052-0.548c-0.143-0.398,0.772-0.854,0.914-0.459c0.037,0.104,0.062,0.227,0.029,0.361  c-0.029,0.125-0.11,0.303-0.049,0.396c0.119,0.193,0.221,0.356,0.221,0.614c0,0.146-0.106,0.278-0.248,0.373  c0.041,0.138,0.084,0.275,0.117,0.42c0.034,0.148-0.083,0.345-0.27,0.488c-0.714,0.542-1.007,0.127-1.23-0.211  C16.011,48.484,16.249,48.188,16.511,48.048z M11.379,47.975c1.073-0.415,1.946-0.182,2.404,0.369  c0.22,0.264,0.384,0.591,0.424,0.964c0.034,0.307,0.238,0.497,0.425,0.698c0.17-0.597,0.017-1.198-0.021-1.7  c-0.025-0.346-0.294-1.411,0.54-1.662c0.372-0.108,0.472,0.144,0.35,0.393c0,0.005-0.002,0.01-0.002,0.021  c-0.006,0.058-0.007,0.12-0.007,0.177c0,0.143,0.009,0.28,0.017,0.416c0.016,0.211,0.031,0.424,0.045,0.635  c0.038,0.594,0.178,1.293-0.204,2c-0.091,0.173-0.255,0.296-0.417,0.362c-0.068,0.4-0.848,0.759-0.915,0.355  c-0.056-0.352-0.39-0.512-0.579-0.774c-0.149,0.048-0.298,0.048-0.391-0.046c-0.306-0.321-0.617-0.636-0.996-0.892  c-0.327-0.225-0.789-0.317-1.08-0.569C10.75,48.525,10.953,48.142,11.379,47.975z M10.665,50.635  c0.186-0.124,0.35-0.145,0.467-0.113c0.046-0.019,0.091-0.032,0.135-0.052c0.237-0.093,0.478-0.194,0.715-0.267  c0.506-0.151,0.966-0.133,0.936,0.327c-0.025,0.432-0.774,0.69-0.9,0.391c-0.019,0.004-0.042,0.012-0.077,0.02  c-0.17,0.048-0.339,0.114-0.508,0.182c-0.34,0.133-0.679,0.282-1.012,0.336c-0.375,0.059-0.391-0.417-0.021-0.659  C10.488,50.744,10.579,50.689,10.665,50.635z M5.497,51.998c0.058-0.028,0.118-0.061,0.176-0.087  c0.395-0.204,0.764-0.456,1.122-0.738c0.375-0.294,0.752-0.683,1.152-0.939c0.747-0.478,1.291-0.401,1.992-0.51  c0.265-0.041,0.336,0.105,0.282,0.282c0.122,0.125,0.089,0.359-0.213,0.552c-0.683,0.438-1.368,0.521-2.046,0.929  c-0.406,0.248-0.787,0.504-1.216,0.681c-0.311,0.125-0.617,0.252-0.922,0.399c-0.062,0.032-0.127,0.064-0.189,0.093  C5.045,52.934,4.904,52.301,5.497,51.998z M6.044,54.748c-0.095,0.154-0.286,0.3-0.458,0.355c-0.477,0.167-1.114,0.206-1.145-0.214  v-0.01c-0.265,0.046-0.528,0.058-0.79,0.022c-0.499-0.069,0.043-0.859,0.537-0.793c0.954,0.127,2.175-0.695,3.232-1.107  c0.041-0.012,0.077-0.023,0.11-0.03c0.092-0.059,0.186-0.112,0.277-0.171c0.555-0.361,0.921,0.101,0.377,0.515  c-0.497,0.376-0.923,0.836-1.463,1.157C6.501,54.6,6.267,54.709,6.044,54.748z M9.406,55.28c-0.614,0.331-1.204,0.426-1.812,0.626  c-0.377,0.123-0.541-0.202-0.289-0.496c-0.285-0.053-0.264-0.5,0.191-0.734c0.906-0.466,1.816-0.927,2.718-1.42  c0.441-0.242,0.897-0.478,1.314-0.78c0.332-0.24,0.655-0.49,0.992-0.72c0.383-0.266,0.743-0.129,0.621,0.222  c-0.261,0.734-1.319,1.525-2.057,2.013c-0.422,0.278-0.825,0.512-1.275,0.696c-0.014,0.006-0.025,0.01-0.039,0.016  C9.813,54.868,9.701,55.12,9.406,55.28z M11.478,55.295c-0.029,0.123-0.112,0.254-0.249,0.357l-0.169,0.123  c-0.203,0.147-0.41,0.167-0.538,0.103c-0.497,0.036-0.237-0.649,0.253-0.782c0.519-0.598,1.173-1.077,1.883-1.515  c0.417-0.256,0.855-0.5,1.281-0.765c0.003-0.161,0.122-0.358,0.378-0.49c0.318-0.159,0.625-0.336,0.943-0.478  c0.416-0.182,0.778,0.125,0.366,0.496c-0.701,0.634-1.49,1.097-2.294,1.577C12.668,54.312,11.98,54.736,11.478,55.295z   M12.902,56.535c-0.096,0.064-0.194,0.125-0.291,0.186c-0.562,0.355-0.943-0.157-0.376-0.512c0.735-0.468,1.441-0.98,2.147-1.492  c0.56-0.406,1.188-0.795,1.686-1.271c0.272-0.258,0.511-0.518,0.666-0.814c0.118-0.226,0.23-0.445,0.407-0.661  c0.426-0.534,0.983-0.688,1.553-0.97c0.444-0.216,0.733,0.135,0.365,0.498c-0.977,0.968-2.024,1.899-2.93,2.911  c-0.856,0.952-1.743,1.717-2.956,2.112C13.057,56.56,12.968,56.562,12.902,56.535z M16.686,55.361  c-0.217,0.221-0.441,0.432-0.675,0.634c-0.062,0.074-0.135,0.133-0.21,0.178c-0.251,0.209-0.51,0.41-0.775,0.604  c-0.545,0.399-0.919-0.117-0.376-0.512c0.261-0.194,0.511-0.392,0.752-0.595c0.324-0.44,0.673-0.914,1.154-1.253  c0.083-0.059,0.161-0.113,0.236-0.17c0.367-0.4,0.752-0.782,1.204-1.142c0.526-0.421,0.89,0.098,0.374,0.517  c-0.203,0.165-0.316,0.376-0.491,0.556c-0.17,0.171-0.347,0.328-0.543,0.473C17.125,54.89,16.916,55.124,16.686,55.361z   M19.733,53.615c-0.218,0.236-0.451,0.46-0.679,0.689c-0.33,0.335-0.538,0.694-0.819,1.049c-0.388,0.498-1.14,0.365-0.751-0.133  c0.421-0.537,0.76-1.024,1.265-1.529c0.299-0.298,0.877-0.812,0.773-1.119c-0.135-0.4,0.78-0.859,0.914-0.457  C20.583,52.549,20.174,53.138,19.733,53.615z M20.863,47.397c-0.035,0.22-0.125,0.45-0.17,0.669  c-0.029,0.131-0.108,0.251-0.209,0.341c-0.007,0.058-0.013,0.113-0.021,0.172c-0.066,0.484-0.983,0.759-0.918,0.273  c0.026-0.194,0.039-0.38,0.033-0.557c-0.042-0.093-0.056-0.201-0.027-0.32c0.044-0.18,0.204-0.345,0.38-0.446  c-0.041-0.158-0.087-0.305-0.07-0.489c0.039-0.482,0.958-0.754,0.917-0.273C20.757,46.998,20.908,47.151,20.863,47.397z   M22.133,49.126c-0.023,0.048-0.201,0.428-0.396,1.016C21.872,49.525,22.1,49.171,22.133,49.126z M13.583,60.496  c-0.106-0.257,0.513-0.621,0.661-0.403c0.064,0.097,0.12,0.204,0.184,0.299c0.062,0.09,0.023,0.209-0.062,0.309  c0.002,0.559-0.203,1.195-0.141,1.738c0.039,0.33-0.646,0.675-0.686,0.34C13.456,62.057,13.855,61.138,13.583,60.496z   M12.321,61.694c-0.004-0.022-0.008-0.045-0.013-0.069c-0.012-0.097,0.05-0.217,0.147-0.314c-0.039-0.061-0.072-0.125-0.061-0.212  c0.008-0.143,0.078-0.292,0.036-0.413c-0.105-0.299,0.58-0.638,0.684-0.343c0.028,0.08,0.048,0.169,0.023,0.271  c-0.023,0.095-0.083,0.229-0.04,0.298c0.09,0.146,0.168,0.267,0.17,0.46c0,0.109-0.081,0.206-0.187,0.28  c0.032,0.104,0.062,0.204,0.089,0.312c0.025,0.113-0.065,0.259-0.202,0.365c-0.536,0.407-0.758,0.095-0.923-0.155  C11.946,62.021,12.122,61.799,12.321,61.694z M8.474,61.642c0.804-0.312,1.459-0.137,1.8,0.274c0.165,0.197,0.29,0.445,0.322,0.722  c0.023,0.229,0.178,0.373,0.317,0.524c0.128-0.447,0.012-0.901-0.016-1.274c-0.021-0.259-0.222-1.057,0.405-1.244  c0.276-0.083,0.35,0.106,0.262,0.292c0,0.004,0,0.008-0.002,0.017c-0.002,0.044-0.004,0.088-0.004,0.133  c0,0.104,0.006,0.207,0.011,0.311c0.012,0.161,0.024,0.318,0.035,0.476c0.028,0.443,0.133,0.972-0.151,1.496  c-0.069,0.13-0.191,0.227-0.315,0.276c-0.049,0.298-0.632,0.565-0.682,0.265c-0.046-0.263-0.296-0.383-0.437-0.581  c-0.113,0.036-0.224,0.036-0.289-0.034c-0.229-0.239-0.469-0.474-0.752-0.667c-0.244-0.168-0.59-0.238-0.807-0.428  C8.003,62.051,8.155,61.767,8.474,61.642z M7.939,63.63c0.137-0.089,0.261-0.106,0.351-0.081c0.035-0.014,0.065-0.025,0.1-0.038  c0.176-0.072,0.359-0.147,0.536-0.199c0.38-0.113,0.724-0.1,0.702,0.243c-0.02,0.322-0.58,0.519-0.674,0.293  c-0.016,0.005-0.035,0.009-0.058,0.017c-0.128,0.035-0.255,0.082-0.384,0.133c-0.253,0.101-0.507,0.213-0.755,0.254  c-0.281,0.044-0.296-0.314-0.015-0.496C7.808,63.714,7.875,63.675,7.939,63.63z M4.066,64.657c0.045-0.025,0.089-0.047,0.134-0.068  c0.294-0.152,0.571-0.342,0.838-0.551c0.283-0.223,0.565-0.515,0.865-0.704c0.56-0.361,0.966-0.302,1.495-0.386  c0.197-0.028,0.249,0.08,0.21,0.214c0.089,0.093,0.064,0.269-0.162,0.416c-0.511,0.326-1.027,0.387-1.532,0.693  c-0.303,0.186-0.591,0.376-0.913,0.508c-0.23,0.097-0.461,0.191-0.691,0.302c-0.044,0.025-0.094,0.047-0.141,0.069  C3.729,65.354,3.623,64.88,4.066,64.657z M4.474,66.715c-0.07,0.115-0.214,0.227-0.341,0.27c-0.362,0.121-0.835,0.15-0.86-0.165  c0-0.001,0-0.004,0.003-0.005c-0.199,0.034-0.397,0.042-0.594,0.016c-0.372-0.051,0.033-0.643,0.403-0.596  c0.715,0.098,1.631-0.52,2.423-0.825c0.03-0.013,0.059-0.019,0.082-0.024c0.07-0.042,0.141-0.085,0.207-0.13  c0.417-0.271,0.692,0.077,0.284,0.388c-0.375,0.282-0.693,0.625-1.097,0.865C4.819,66.604,4.645,66.687,4.474,66.715z M6.994,67.115  c-0.458,0.248-0.9,0.318-1.358,0.467c-0.282,0.093-0.4-0.148-0.213-0.37c-0.213-0.041-0.2-0.375,0.14-0.549  c0.681-0.352,1.364-0.696,2.04-1.064c0.331-0.185,0.674-0.359,0.985-0.585c0.248-0.182,0.489-0.367,0.742-0.541  c0.285-0.197,0.556-0.097,0.463,0.166c-0.193,0.553-0.986,1.143-1.539,1.507c-0.318,0.211-0.621,0.389-0.956,0.522  c-0.01,0.004-0.021,0.009-0.031,0.014C7.299,66.804,7.217,66.993,6.994,67.115z M8.549,67.127c-0.023,0.089-0.083,0.188-0.187,0.266  l-0.129,0.093c-0.149,0.109-0.308,0.126-0.402,0.077c-0.372,0.026-0.178-0.488,0.19-0.589c0.389-0.444,0.88-0.805,1.411-1.134  c0.315-0.189,0.641-0.375,0.961-0.573c0.002-0.116,0.089-0.268,0.285-0.365c0.234-0.12,0.469-0.254,0.706-0.358  c0.308-0.137,0.581,0.092,0.271,0.371c-0.524,0.477-1.118,0.821-1.718,1.182C9.439,66.393,8.926,66.707,8.549,67.127z M9.615,68.054  C9.544,68.103,9.47,68.15,9.4,68.196c-0.422,0.266-0.709-0.12-0.284-0.388c0.553-0.348,1.079-0.734,1.608-1.118  c0.418-0.302,0.89-0.595,1.261-0.951c0.206-0.191,0.385-0.388,0.502-0.611c0.087-0.167,0.17-0.333,0.302-0.497  c0.322-0.396,0.739-0.514,1.167-0.723c0.332-0.165,0.551,0.101,0.275,0.371c-0.736,0.727-1.521,1.425-2.196,2.183  c-0.643,0.712-1.309,1.286-2.215,1.583C9.731,68.072,9.666,68.074,9.615,68.054z M12.452,67.174  c-0.161,0.167-0.332,0.324-0.506,0.477c-0.046,0.055-0.101,0.102-0.159,0.133c-0.188,0.158-0.381,0.308-0.581,0.455  c-0.407,0.298-0.688-0.088-0.283-0.39c0.194-0.141,0.383-0.291,0.563-0.439c0.244-0.331,0.505-0.69,0.865-0.943  c0.062-0.043,0.12-0.081,0.179-0.124c0.275-0.301,0.562-0.587,0.899-0.856c0.396-0.315,0.669,0.072,0.282,0.388  c-0.152,0.124-0.235,0.278-0.371,0.415c-0.124,0.131-0.256,0.246-0.403,0.355C12.78,66.819,12.622,66.997,12.452,67.174z   M14.733,65.869c-0.162,0.175-0.338,0.342-0.507,0.516c-0.248,0.25-0.406,0.516-0.615,0.785c-0.29,0.372-0.852,0.271-0.562-0.1  c0.316-0.402,0.571-0.768,0.949-1.146c0.225-0.226,0.658-0.608,0.579-0.84c-0.101-0.302,0.583-0.645,0.683-0.342  C15.37,65.068,15.066,65.507,14.733,65.869z M15.581,61.206c-0.027,0.167-0.091,0.338-0.128,0.504  c-0.019,0.097-0.08,0.186-0.158,0.254c-0.003,0.045-0.01,0.085-0.014,0.13c-0.049,0.362-0.738,0.568-0.688,0.201  c0.021-0.146,0.03-0.282,0.025-0.416c-0.03-0.068-0.041-0.148-0.02-0.24c0.034-0.134,0.152-0.256,0.282-0.332  c-0.027-0.119-0.063-0.228-0.05-0.367c0.03-0.363,0.72-0.564,0.688-0.205C15.503,60.907,15.612,61.022,15.581,61.206z   M15.784,61.339c-0.087-0.728,0.031-1.186,0.031-1.186S15.766,60.619,15.784,61.339z M10.292,71.858  c-0.071-0.174,0.341-0.417,0.437-0.27c0.046,0.063,0.083,0.135,0.125,0.2c0.042,0.057,0.013,0.137-0.042,0.205  c0.003,0.374-0.136,0.799-0.093,1.158c0.025,0.221-0.432,0.452-0.458,0.23C10.204,72.896,10.471,72.285,10.292,71.858z   M9.446,72.659c-0.001-0.018-0.005-0.033-0.006-0.047c-0.01-0.067,0.034-0.147,0.098-0.211c-0.025-0.042-0.045-0.083-0.042-0.143  c0.007-0.095,0.054-0.191,0.025-0.273c-0.068-0.203,0.385-0.426,0.457-0.23c0.018,0.054,0.033,0.115,0.014,0.18  c-0.014,0.064-0.053,0.152-0.024,0.199c0.06,0.1,0.11,0.178,0.113,0.309c0,0.07-0.056,0.137-0.127,0.186  c0.023,0.068,0.042,0.137,0.059,0.21c0.02,0.074-0.04,0.171-0.131,0.241c-0.36,0.273-0.507,0.067-0.616-0.104  C9.197,72.874,9.317,72.726,9.446,72.659z M6.882,72.622c0.537-0.213,0.971-0.091,1.202,0.184c0.107,0.133,0.192,0.295,0.211,0.484  c0.015,0.151,0.117,0.244,0.214,0.346c0.084-0.3,0.007-0.601-0.012-0.849c-0.016-0.175-0.15-0.708,0.271-0.832  c0.186-0.054,0.236,0.072,0.174,0.194v0.011c0,0.032-0.004,0.062-0.004,0.09c0,0.072,0.004,0.139,0.008,0.209  c0.008,0.104,0.016,0.212,0.022,0.313c0.02,0.299,0.088,0.65-0.1,1.002c-0.048,0.088-0.127,0.148-0.209,0.182  c-0.035,0.201-0.423,0.377-0.456,0.179c-0.029-0.175-0.196-0.256-0.289-0.39c-0.078,0.024-0.151,0.024-0.196-0.024  c-0.152-0.157-0.311-0.314-0.5-0.444c-0.163-0.112-0.394-0.156-0.537-0.283C6.566,72.895,6.667,72.705,6.882,72.622z M6.524,73.95  c0.092-0.06,0.174-0.074,0.234-0.056c0.021-0.011,0.043-0.019,0.067-0.026c0.118-0.048,0.239-0.099,0.355-0.133  c0.254-0.075,0.484-0.064,0.468,0.163c-0.01,0.214-0.387,0.345-0.451,0.195c-0.007,0-0.02,0.005-0.036,0.011  c-0.086,0.023-0.172,0.057-0.255,0.086c-0.17,0.071-0.339,0.148-0.502,0.172c-0.19,0.031-0.196-0.209-0.012-0.331  C6.435,74.006,6.48,73.979,6.524,73.95z M3.942,74.633c0.028-0.017,0.057-0.03,0.085-0.045c0.197-0.101,0.381-0.226,0.561-0.368  c0.188-0.147,0.379-0.344,0.579-0.471c0.371-0.24,0.644-0.202,0.996-0.256c0.129-0.021,0.167,0.054,0.139,0.143  c0.06,0.062,0.046,0.178-0.106,0.278c-0.342,0.218-0.683,0.255-1.022,0.465c-0.206,0.12-0.394,0.25-0.608,0.337  c-0.156,0.064-0.309,0.127-0.46,0.201c-0.033,0.016-0.064,0.03-0.094,0.046C3.716,75.1,3.644,74.781,3.942,74.633z M4.215,76.008  c-0.048,0.077-0.145,0.147-0.229,0.178c-0.24,0.082-0.56,0.101-0.574-0.107c0-0.001,0-0.004,0.002-0.005  c-0.137,0.023-0.266,0.029-0.397,0.012c-0.25-0.037,0.021-0.433,0.271-0.4c0.474,0.067,1.086-0.346,1.614-0.552  c0.02-0.004,0.038-0.008,0.056-0.012c0.046-0.03,0.091-0.057,0.137-0.088c0.277-0.183,0.461,0.051,0.187,0.256  c-0.248,0.19-0.461,0.421-0.729,0.58C4.441,75.934,4.326,75.988,4.215,76.008z M5.894,76.274c-0.306,0.165-0.6,0.21-0.906,0.311  c-0.188,0.063-0.27-0.101-0.142-0.247c-0.144-0.023-0.133-0.249,0.093-0.371c0.453-0.229,0.909-0.459,1.358-0.705  c0.223-0.121,0.453-0.237,0.659-0.392c0.167-0.12,0.329-0.246,0.496-0.359c0.193-0.132,0.372-0.067,0.311,0.109  c-0.131,0.367-0.661,0.765-1.029,1.009c-0.211,0.14-0.412,0.256-0.639,0.346c-0.005,0.006-0.011,0.006-0.019,0.01  C6.097,76.066,6.044,76.193,5.894,76.274z M6.931,76.28c-0.014,0.062-0.055,0.127-0.124,0.18l-0.085,0.06  c-0.103,0.073-0.207,0.085-0.27,0.054c-0.248,0.017-0.117-0.324,0.129-0.392c0.256-0.298,0.583-0.538,0.938-0.758  c0.21-0.128,0.43-0.251,0.642-0.382c0-0.079,0.058-0.18,0.188-0.246c0.16-0.079,0.313-0.167,0.474-0.239  c0.205-0.089,0.387,0.063,0.18,0.249c-0.349,0.319-0.746,0.549-1.146,0.787C7.525,75.791,7.179,76,6.931,76.28z M7.645,76.901  c-0.05,0.033-0.099,0.062-0.146,0.093c-0.281,0.176-0.472-0.076-0.188-0.257c0.367-0.233,0.719-0.488,1.073-0.745  c0.28-0.204,0.593-0.399,0.842-0.635c0.138-0.13,0.257-0.262,0.334-0.41c0.06-0.112,0.116-0.222,0.204-0.331  c0.213-0.266,0.49-0.343,0.775-0.484c0.223-0.108,0.368,0.069,0.183,0.251c-0.489,0.481-1.015,0.949-1.464,1.456  c-0.428,0.476-0.874,0.858-1.479,1.057C7.721,76.914,7.675,76.915,7.645,76.901z M9.534,76.314c-0.104,0.108-0.22,0.214-0.337,0.316  c-0.029,0.039-0.067,0.066-0.104,0.091c-0.126,0.101-0.257,0.201-0.388,0.298c-0.272,0.202-0.46-0.056-0.189-0.253  c0.129-0.097,0.255-0.196,0.375-0.299c0.163-0.219,0.335-0.456,0.577-0.625c0.041-0.032,0.081-0.056,0.12-0.085  c0.184-0.203,0.375-0.392,0.6-0.57c0.264-0.212,0.447,0.048,0.19,0.256c-0.105,0.085-0.16,0.187-0.25,0.278  c-0.083,0.086-0.172,0.166-0.27,0.237C9.753,76.077,9.65,76.193,9.534,76.314z M11.057,75.44c-0.108,0.119-0.225,0.229-0.338,0.347  c-0.165,0.167-0.27,0.345-0.409,0.523c-0.197,0.248-0.571,0.182-0.375-0.066c0.209-0.27,0.378-0.513,0.631-0.765  c0.151-0.148,0.439-0.407,0.387-0.56c-0.068-0.203,0.387-0.43,0.458-0.231C11.483,74.906,11.278,75.2,11.057,75.44z M11.623,72.331  c-0.015,0.111-0.062,0.225-0.083,0.337c-0.014,0.065-0.054,0.125-0.106,0.17c0,0.027-0.006,0.057-0.01,0.085  c-0.033,0.241-0.492,0.379-0.458,0.137c0.011-0.099,0.018-0.189,0.014-0.278c-0.021-0.048-0.026-0.102-0.012-0.159  c0.02-0.091,0.102-0.171,0.189-0.225c-0.02-0.078-0.044-0.152-0.035-0.245c0.019-0.24,0.479-0.375,0.458-0.135  C11.57,72.13,11.644,72.208,11.623,72.331z M72.754,74.302c-0.069,0.468-0.139,0.941-0.154,1.413c-0.015,0.41,0.07,0.813,0.034,1.22  c-0.034,0.312-0.28,0.469-0.486,0.296c-0.512-0.438-0.648-1.246-0.511-2.005c0.072-0.365,0.181-0.742,0.354-1.063  c0.141-0.264,0.172-0.558,0.222-0.849c-0.345,0.347-0.6,0.927-0.832,1.349c-0.164,0.293-0.608,1.322-0.973,0.922  c-0.162-0.177-0.068-0.447,0.09-0.556c0.004-0.004,0.008-0.011,0.012-0.018c0.029-0.041,0.062-0.087,0.089-0.137  c0.07-0.108,0.134-0.221,0.2-0.336c0.101-0.176,0.199-0.354,0.299-0.532c0.279-0.493,0.586-1.142,1.041-1.427  c0.113-0.07,0.221-0.052,0.299,0.012c0.219-0.265,0.618,0.009,0.438,0.372c-0.154,0.319-0.139,0.684-0.214,1.024  C72.729,74.057,72.773,74.161,72.754,74.302z M73.071,75.048c-0.221-0.242-0.343-0.584-0.108-0.928  c0.218-0.318,0.564,0.012,0.451,0.339c0.008,0.009,0.017,0.021,0.033,0.039c0.071,0.078,0.152,0.151,0.235,0.222  c0.163,0.136,0.333,0.26,0.454,0.453c0.141,0.222-0.089,0.608-0.318,0.534c-0.049-0.018-0.104-0.038-0.158-0.059  c-0.111-0.035-0.17-0.132-0.189-0.245c-0.02-0.017-0.04-0.037-0.064-0.057C73.293,75.254,73.173,75.161,73.071,75.048z   M75.821,78.267c-0.029-0.021-0.062-0.04-0.093-0.061c-0.213-0.121-0.442-0.186-0.687-0.22c-0.252-0.032-0.55,0.001-0.793-0.083  c-0.448-0.157-0.568-0.605-0.827-1.021c-0.093-0.154-0.044-0.322,0.06-0.423c0.025-0.182,0.152-0.347,0.333-0.282  c0.411,0.141,0.648,0.567,1.047,0.729c0.239,0.097,0.475,0.166,0.685,0.335c0.151,0.121,0.303,0.241,0.461,0.343  c0.037,0.02,0.069,0.041,0.102,0.062C76.413,77.852,76.143,78.448,75.821,78.267z M77.548,76.745c0,0-0.001,0.006-0.001,0.007  c0.094,0.154,0.179,0.333,0.235,0.546c0.109,0.407-0.436,0.646-0.545,0.239c-0.209-0.782-0.968-1.005-1.472-1.437  c-0.022-0.016-0.037-0.037-0.05-0.057c-0.055-0.018-0.107-0.04-0.163-0.06c-0.34-0.114-0.217-0.734,0.145-0.674  c0.331,0.06,0.676,0.004,0.987,0.137c0.13,0.055,0.251,0.135,0.336,0.263c0.101-0.053,0.228-0.03,0.306,0.048  C77.547,75.967,77.745,76.393,77.548,76.745z M77.141,73.693c0.17,0.174,0.058,0.543-0.163,0.597  c0.059,0.244-0.167,0.58-0.413,0.441c-0.492-0.28-0.982-0.569-1.48-0.825c-0.247-0.123-0.495-0.267-0.765-0.326  c-0.214-0.046-0.431-0.081-0.639-0.138c-0.241-0.066-0.28-0.43-0.069-0.616c0.437-0.396,1.126-0.259,1.582-0.117  c0.263,0.08,0.487,0.186,0.709,0.362c0.007,0.004,0.012,0.012,0.019,0.018c0.07-0.162,0.225-0.283,0.389-0.196  C76.649,73.067,76.866,73.416,77.141,73.693z M75.824,72.06c-0.441,0.101-0.866,0.008-1.289-0.154  c-0.246-0.093-0.491-0.217-0.743-0.31c-0.08,0.12-0.21,0.193-0.349,0.112c-0.17-0.101-0.348-0.182-0.51-0.298  c-0.209-0.148-0.16-0.65,0.14-0.65c0.515,0.003,0.971,0.202,1.439,0.4c0.384,0.163,0.789,0.322,1.208,0.242  c0.067-0.074,0.155-0.124,0.248-0.104l0.107,0.026c0.133,0.026,0.204,0.157,0.205,0.298C76.443,71.955,76.032,72.305,75.824,72.06z   M74.757,67.615c0.057-0.016,0.107-0.012,0.15,0.009c0.173,0.015,0.346,0.041,0.521,0.077c0.351,0.07,0.207,0.748-0.146,0.677  c-0.17-0.037-0.337-0.062-0.507-0.073c-0.311,0.112-0.643,0.241-0.952,0.162c-0.05-0.014-0.098-0.027-0.148-0.038  c-0.305,0.058-0.602,0.079-0.905,0.042c-0.363-0.046-0.215-0.713,0.143-0.674c0.14,0.013,0.275-0.069,0.417-0.085  c0.134-0.015,0.259-0.012,0.389,0.016c0.175-0.035,0.354-0.077,0.535-0.097C74.423,67.611,74.593,67.608,74.757,67.615z   M71.575,67.508c0.169-0.445,0.576-0.616,0.942-0.678c0.175-0.032,0.354-0.04,0.53-0.059c0.261-0.027,0.5-0.161,0.753-0.242  c0.355-0.113,0.511,0.526,0.15,0.642c-0.384,0.123-0.723,0.263-1.114,0.301c-0.233,0.021-0.651,0.01-0.774,0.329  C71.903,68.213,71.416,67.919,71.575,67.508z M71.67,68.976c0.756-0.063,1.518-0.051,2.272-0.199  c0.717-0.138,1.348-0.108,1.892,0.447c0.053,0.054,0.08,0.118,0.084,0.184c0.062,0.021,0.12,0.039,0.178,0.062  c0.337,0.12,0.194,0.795-0.146,0.674c-0.439-0.162-0.894-0.26-1.349-0.363c-0.362-0.078-0.734-0.222-1.11-0.201  c-0.205,0.006-0.405,0.045-0.594,0.167c-0.148,0.093-0.289,0.186-0.444,0.23c-0.386,0.11-0.619-0.163-0.921-0.352  C71.292,69.482,71.381,69.001,71.67,68.976z M71.124,73.269c-0.062,0.255-0.274,0.319-0.418,0.24  c-0.015,0.026-0.026,0.055-0.041,0.085c-0.062,0.115-0.164,0.185-0.264,0.192c-0.024,0.097-0.056,0.197-0.112,0.282  c-0.1,0.137-0.225,0.228-0.287,0.396c-0.157,0.413-0.643,0.116-0.487-0.295c0.039-0.104,0.093-0.219,0.167-0.302  c0.07-0.077,0.184-0.162,0.212-0.279c0.059-0.234,0.108-0.436,0.236-0.639c0.07-0.115,0.167-0.144,0.256-0.119  c0.054-0.138,0.108-0.274,0.171-0.411c0.064-0.144,0.196-0.215,0.316-0.193C71.346,72.309,71.229,72.846,71.124,73.269z   M70.947,71.208c-0.441,0.84-1.197,1.43-1.514,2.355c-0.129,0.371-0.604,0.165-0.519-0.203c0.038-0.167,0.088-0.329,0.127-0.49  c0.032-0.155,0.125-0.24,0.222-0.265c0.367-0.588,0.866-1.063,1.198-1.688C70.661,70.531,71.151,70.821,70.947,71.208z   M69.738,70.395c0.028-0.046,0.06-0.084,0.09-0.122c0.256-0.338,0.658,0.104,0.398,0.441c-0.101,0.131-0.198,0.269-0.282,0.413  c-0.035,0.102-0.084,0.196-0.151,0.269c-0.101,0.111-0.227,0.127-0.328,0.083c-0.066,0.152-0.124,0.303-0.223,0.436  c-0.249,0.347-0.644-0.095-0.396-0.442c0.119-0.167,0.152-0.395,0.283-0.557c0.121-0.146,0.261-0.265,0.382-0.404  C69.583,70.424,69.663,70.391,69.738,70.395z M71.416,48.229c0.004-0.368,0.248-0.745,0.72-0.754  c0.971-0.013,1.821,0.421,2.736,0.661c0.562,0.151,0.666,0.955,0.208,1.267c0.376,0.398,0.184,1.252-0.534,1.236  c-1.431-0.032-2.858-0.079-4.285-0.052c-0.703,0.012-1.423-0.002-2.109,0.155c-0.547,0.127-1.09,0.274-1.638,0.382  c-0.63,0.114-1.073-0.525-0.773-1.079c0.639-1.166,2.391-1.602,3.593-1.79c0.689-0.108,1.336-0.147,2.021-0.035  C71.377,48.222,71.394,48.227,71.416,48.229z M69.762,44.864l0.276-0.063c0.335-0.08,0.631,0.097,0.781,0.355  c0.697,0.447,0.086,1.51-0.644,1.264c-0.938,0.625-2.024,0.879-3.166,0.998c-0.674,0.07-1.372,0.089-2.058,0.163  c-0.064,0.31-0.298,0.576-0.703,0.561c-0.498-0.017-0.99,0.01-1.484-0.047c-0.64-0.07-1.027-1.045-0.314-1.346  c1.203-0.507,2.47-0.592,3.757-0.688c1.061-0.08,2.17-0.188,3.072-0.761C69.364,45.092,69.526,44.918,69.762,44.864z M63.282,39.236  c0.117-0.082,0.242-0.121,0.361-0.13c0.422-0.145,0.857-0.269,1.295-0.375c0.897-0.216,1.226,1.181,0.329,1.397  c-0.432,0.103-0.852,0.223-1.261,0.368c-0.611,0.522-1.272,1.094-2.066,1.254c-0.13,0.027-0.261,0.048-0.388,0.074  c-0.655,0.412-1.329,0.749-2.086,0.984c-0.887,0.277-1.193-1.112-0.326-1.394c0.345-0.117,0.576-0.402,0.888-0.57  c0.298-0.161,0.601-0.283,0.927-0.36c0.38-0.246,0.755-0.496,1.16-0.713C62.496,39.563,62.888,39.391,63.282,39.236z M55.777,41.702  c0.186-0.738,0.83-1.297,1.479-1.688c0.387-0.233,0.795-0.426,1.194-0.641c0.584-0.311,1.004-0.791,1.524-1.193  c0.722-0.567,1.712,0.469,0.983,1.039c-0.78,0.61-1.431,1.208-2.314,1.667c-0.528,0.273-1.517,0.675-1.488,1.386  c0.028,0.778-0.984,0.857-1.323,0.312c-0.064-0.101-0.104-0.225-0.11-0.372C55.716,42.033,55.732,41.862,55.777,41.702z   M56.688,55.58c0.068,0.814-1.254,0.911-1.416,0.132c-0.072-0.345-0.122-0.691-0.193-1.034c-0.068-0.318,0.064-0.566,0.271-0.712  c0.273-1.453,0.968-2.822,1.127-4.313c0-0.006,0.002-0.006,0.002-0.011c0.095-0.916,1.528-0.865,1.434,0.057  c-0.006,0.061-0.014,0.125-0.021,0.185C57.63,51.812,56.519,53.605,56.688,55.58z M53.244,52.282c0.112-0.43-0.03-0.883,0.117-1.317  c0.135-0.391,0.343-0.746,0.488-1.131c0.088-0.228,0.241-0.373,0.419-0.441c0.002-0.008,0.004-0.012,0.004-0.018  c0.028-0.099,0.057-0.2,0.089-0.296c0.274-0.882,1.642-0.463,1.371,0.423c-0.008,0.015-0.013,0.031-0.017,0.044  c-0.101,0.335-0.185,0.666-0.239,1.006c0.022,0.22,0,0.441-0.087,0.646c-0.125,0.309-0.411,0.462-0.686,0.477  c-0.004,0.349,0.004,0.688-0.089,1.032C54.378,53.6,53.01,53.176,53.244,52.282z M53.135,41.569  c-0.395,0.843-0.77,1.783-1.122,2.826c-0.348,1.027-0.617,1.989-0.815,2.895c-1.414-0.101-2.88-0.156-4.379-0.156  c-0.188,0-0.377,0.002-0.563,0.003C48.401,44.026,50.912,41.361,53.135,41.569z M44.081,48.97h0.007  c-0.007,0.021-0.013,0.031-0.015,0.037L44.081,48.97z M26.889,56.821c1.925-0.526,4.229-1.432,6.52-2.447  c-0.932,1.117-2.259,2.663-3.744,4.265C28.501,58.086,27.56,57.476,26.889,56.821z M46.818,61.653  c-6.125,0-11.638-0.896-15.499-2.323c1.926-2.079,3.551-4.154,4.42-5.751l-0.188-0.189c3.334-1.569,6.351-3.188,7.729-3.941  c-2.036,3.292-3.472,6.155-3.472,6.155l1.384,0.621c0,0,1.505-3.376,3.639-6.885l0.327,0.141c0,0,0.069-0.189,0.192-0.526  c0.478-0.002,0.967-0.002,1.467,0.004c1.454,0.021,2.807,0.069,4.066,0.142c-0.875,7.072,3.146,10.104,8.664,11.088  C56.007,61.108,51.599,61.653,46.818,61.653z M59.616,54.21c-0.008,0.062-0.008,0.132-0.014,0.195  c-0.026,0.274-0.204,0.501-0.43,0.613c0.04,0.212,0.069,0.428,0.012,0.642c-0.097,0.355-0.298,0.646-0.277,1.019  c0.048,0.922-1.386,0.86-1.437-0.059c-0.01-0.238,0-0.5,0.097-0.729c0.089-0.211,0.267-0.481,0.22-0.724  c-0.095-0.5-0.171-0.922-0.078-1.428c0.053-0.286,0.25-0.427,0.484-0.47c-0.005-0.311-0.013-0.625-0.005-0.938  c0.009-0.327,0.246-0.589,0.553-0.67c1.19-0.322,1.444,0.795,1.621,1.682C60.468,53.877,60.028,54.208,59.616,54.21z M60.216,45.917  c-0.789,0.591-1.616,0.312-2.509,0.27c-0.696-0.032-0.962-1.015-0.317-1.346c1.713-0.873,3.51-1.604,5.139-2.634  c1.537-0.971,3.049-1.543,4.872-1.057c0.174,0.048,0.299,0.139,0.376,0.253c0.159-0.021,0.317-0.042,0.476-0.061  c0.903-0.111,1.24,1.284,0.322,1.395c-1.189,0.142-2.354,0.414-3.521,0.675c-0.923,0.211-1.936,0.324-2.799,0.73  c-0.476,0.221-0.903,0.485-1.229,0.901C60.777,45.36,60.538,45.675,60.216,45.917z M66.864,59.686c-0.061,0-0.129-0.006-0.193-0.016  c-0.888-0.162-1.626-0.643-2.178-1.289c-0.468-0.547-0.803-1.214-1.001-1.918c-0.201-0.747-0.309-1.557-0.222-2.323  c0.069-0.629-0.146-1.21-0.322-1.795c-0.466,0.984-0.478,2.319-0.611,3.332c-0.095,0.701-0.123,3.057-1.371,2.678  c-0.551-0.169-0.595-0.763-0.335-1.123c0-0.013,0.004-0.024,0.009-0.039c0.027-0.114,0.054-0.226,0.078-0.347  c0.05-0.271,0.093-0.548,0.131-0.822c0.061-0.43,0.119-0.859,0.178-1.287c0.171-1.194,0.24-2.698,1.028-3.68  c0.03-0.041,0.062-0.075,0.097-0.105c0.18-0.16,0.405-0.208,0.619-0.176c0.24-0.706,1.45-0.595,1.392,0.254  c-0.021,0.266,0.02,0.524,0.087,0.773c0.114,0.452,0.318,0.888,0.417,1.344c0.23,0.057,0.434,0.212,0.524,0.492  c0.303,0.939,0.617,1.881,1.045,2.774c0.095,0.202,0.207,0.392,0.324,0.581c0.212,0.347,0.45,0.678,0.651,1.028  c0.113,0.197,0.219,0.401,0.299,0.617C67.722,59.189,67.404,59.674,66.864,59.686z M67.968,54.965  c-0.03-0.004-0.063-0.011-0.091-0.019c-0.059,0.246-0.123,0.458-0.123,0.458s0-0.188-0.111-0.498  c-0.322-0.053-0.651-0.105-0.964-0.202c-0.759-0.231-1.382-0.744-1.174-1.609c0.047-0.186,0.139-0.314,0.261-0.395  c0.4-0.271,1.085,0.012,1.131,0.568c0.028,0.01,0.059,0.024,0.113,0.04c0.252,0.077,0.512,0.129,0.772,0.18  c0.004,0,0.01,0,0.014,0.002c0.513,0.089,1.029,0.147,1.501,0.383c0.546,0.274,0.389,1.223-0.215,1.307  c-0.145,0.021-0.286,0.033-0.429,0.051C68.356,55.276,68.119,55.152,67.968,54.965z M76.302,57.931  c-0.093-0.004-0.186-0.008-0.278-0.016c-0.621-0.015-1.226,0.097-1.827,0.276c-0.625,0.188-1.294,0.554-1.938,0.639  c-1.21,0.157-1.935-0.561-2.946-1.072c-0.379-0.191-0.424-0.553-0.278-0.844c-0.12-0.366,0.011-0.794,0.499-0.858  c1.104-0.146,2.083,0.411,3.171,0.312c0.654-0.059,1.274-0.161,1.933-0.061c0.476,0.074,0.947,0.146,1.428,0.175  c0.097,0,0.197,0.004,0.294,0.017C77.273,56.575,77.232,57.951,76.302,57.931z M78.844,53.386c0,0.008-0.004,0.016-0.007,0.02  c0.386,0.189,0.752,0.437,1.099,0.777c0.663,0.648-0.383,1.631-1.04,0.985c-1.267-1.238-3.264-0.896-4.874-1.194  c-0.059-0.014-0.113-0.031-0.163-0.056c-0.15,0.016-0.299,0.032-0.448,0.054c-0.902,0.128-1.229-1.155-0.325-1.397  c0.827-0.219,1.587-0.669,2.453-0.733c0.353-0.024,0.716,0.004,1.041,0.157c0.187-0.198,0.504-0.285,0.764-0.218  C78.066,51.953,78.957,52.538,78.844,53.386z M93.597,43.078c0.407-0.097,0.807,0.008,1.218,0.024  c0.254,0.01,0.373,0.341,0.206,0.517c0.198,0.132,0.194,0.512-0.109,0.569c-0.608,0.121-1.214,0.236-1.814,0.379  c-0.297,0.071-0.602,0.134-0.875,0.261c-0.223,0.106-0.432,0.219-0.657,0.314c-0.255,0.108-0.503-0.119-0.426-0.382  c0.156-0.55,0.856-0.901,1.349-1.091c0.278-0.11,0.549-0.187,0.847-0.204c0.013,0,0.021-0.002,0.028-0.002  C93.333,43.307,93.399,43.126,93.597,43.078z M88.644,40.758c0.142-0.124,0.293-0.231,0.444-0.332  c0.043-0.046,0.09-0.075,0.143-0.089c0.166-0.101,0.336-0.193,0.511-0.28c0.359-0.177,0.628,0.383,0.271,0.559  c-0.174,0.083-0.34,0.174-0.497,0.274c-0.21,0.277-0.436,0.58-0.758,0.721c-0.053,0.023-0.103,0.046-0.157,0.069  c-0.236,0.233-0.49,0.438-0.79,0.61c-0.348,0.2-0.607-0.358-0.267-0.56c0.133-0.08,0.205-0.221,0.322-0.321  c0.113-0.098,0.228-0.178,0.359-0.24C88.359,41.03,88.495,40.891,88.644,40.758z M86.873,46.215  c-0.023,0.138-0.131,0.233-0.245,0.263c0.032,0.148,0.063,0.289,0.059,0.444c-0.018,0.399-0.632,0.349-0.618-0.052  c0.007-0.19-0.094-0.369-0.074-0.565c0.02-0.177,0.074-0.348,0.101-0.524c0.016-0.103,0.069-0.18,0.136-0.226  c0.001-0.046,0.005-0.094,0.009-0.141c0.033-0.397,0.652-0.349,0.618,0.05c-0.012,0.159-0.019,0.313-0.008,0.466  C86.877,46.024,86.889,46.121,86.873,46.215z M86.784,42.277c0.1,0.389-0.512,0.497-0.608,0.111  c-0.112-0.417,0.152-0.796,0.442-1.071c0.143-0.135,0.291-0.255,0.443-0.383c0.218-0.186,0.353-0.428,0.53-0.646  c0.253-0.308,0.771,0.04,0.516,0.347c-0.271,0.331-0.492,0.644-0.824,0.921C87.087,41.718,86.706,41.981,86.784,42.277z   M87.124,43.341c0.641-0.526,1.332-1.007,1.921-1.591c0.562-0.554,1.146-0.939,1.96-0.902c0.079,0.003,0.142,0.033,0.185,0.071  c0.064-0.023,0.131-0.046,0.194-0.069c0.37-0.13,0.645,0.429,0.27,0.559c-0.492,0.174-0.96,0.395-1.424,0.613  c-0.376,0.176-0.791,0.318-1.115,0.571c-0.181,0.139-0.34,0.289-0.434,0.496c-0.077,0.155-0.15,0.31-0.263,0.445  c-0.282,0.321-0.653,0.281-1.033,0.347C87.087,43.932,86.884,43.542,87.124,43.341z M87.41,48.281  c-0.069-0.024-0.131-0.07-0.166-0.149c-0.008-0.019-0.016-0.038-0.023-0.058l0,0c-0.053-0.12-0.101-0.243-0.151-0.36  c-0.06-0.131-0.029-0.246,0.047-0.329c-0.01-0.257,0.013-0.512,0.035-0.769v-0.002c-0.046-0.177-0.082-0.286-0.09-0.311  c0.013,0.021,0.055,0.107,0.098,0.244c0.035-0.364,0.069-0.728,0.028-1.092c-0.044-0.393,0.564-0.509,0.609-0.113  c0.099,0.866-0.23,1.756,0.032,2.6C87.91,48.196,87.62,48.35,87.41,48.281z M88.938,47.089c0.006,0.03,0.011,0.058,0.014,0.085  c0.017,0.121-0.037,0.232-0.126,0.3c0.038,0.084,0.068,0.172,0.068,0.269c-0.011,0.16-0.068,0.299-0.026,0.456  c0.108,0.384-0.501,0.493-0.608,0.111c-0.026-0.103-0.047-0.214-0.026-0.318c0.016-0.099,0.068-0.229,0.023-0.327  c-0.086-0.202-0.159-0.375-0.168-0.595c-0.004-0.125,0.067-0.204,0.16-0.243c-0.027-0.134-0.063-0.263-0.089-0.396  c-0.025-0.139,0.049-0.271,0.173-0.334c0.469-0.246,0.683,0.2,0.84,0.556C89.27,46.871,89.114,47.051,88.938,47.089z M89.438,43.676  c0.462-0.33,0.988-0.482,1.522-0.645c0.441-0.133,0.897-0.281,1.227-0.606c0.016-0.095,0.07-0.184,0.163-0.228l0.112-0.054  c0.133-0.064,0.274-0.017,0.361,0.078c0.337,0.123,0.18,0.63-0.155,0.594c-0.334,0.352-0.771,0.562-1.242,0.717  c-0.279,0.092-0.573,0.164-0.855,0.262c0.004,0.136-0.071,0.271-0.244,0.3c-0.211,0.041-0.415,0.096-0.627,0.12  C89.423,44.243,89.166,43.869,89.438,43.676z M92.428,48.738c-0.719,0.027-1.315-0.445-1.642-1.059  c-0.154-0.294-0.274-0.625-0.312-0.958c-0.029-0.272-0.171-0.497-0.304-0.729c-0.104,0.461,0.013,1.024,0.054,1.465  c0.024,0.306,0.233,1.302-0.331,1.258c-0.245-0.019-0.322-0.266-0.244-0.443v-0.016c0.003-0.051,0.003-0.101,0.003-0.155  c-0.004-0.12-0.015-0.24-0.02-0.36c-0.017-0.186-0.033-0.373-0.05-0.557c-0.039-0.521-0.148-1.164,0.089-1.652  c0.062-0.119,0.17-0.177,0.276-0.185c0.037-0.322,0.56-0.388,0.615-0.023c0.045,0.319,0.274,0.562,0.412,0.845  c0.101,0.003,0.199,0.051,0.261,0.161c0.219,0.37,0.44,0.736,0.703,1.075c0.229,0.293,0.542,0.514,0.749,0.819  C92.843,48.461,92.714,48.726,92.428,48.738z M93.028,46.616c-0.062,0.024-0.119,0.041-0.178,0.064  c-0.121,0.045-0.236,0.014-0.314-0.05c-0.03,0-0.059,0.002-0.089,0.002c-0.159,0.007-0.322,0.021-0.479,0.007  c-0.341-0.026-0.654-0.184-0.646-0.571c0.008-0.36,0.514-0.351,0.606-0.053c0.009,0,0.023,0.002,0.05,0.004  c0.117,0.008,0.228,0.008,0.343,0.002c0.228-0.009,0.453-0.034,0.676,0.024C93.254,46.109,93.273,46.524,93.028,46.616z   M96.334,47.106c-0.039,0.004-0.081,0.014-0.12,0.019c-0.264,0.052-0.506,0.154-0.746,0.287c-0.245,0.136-0.493,0.354-0.76,0.449  c-0.494,0.18-0.867-0.056-1.343-0.176c-0.176-0.048-0.229-0.196-0.2-0.331c-0.083-0.145-0.068-0.336,0.134-0.41  c0.454-0.165,0.919-0.021,1.371-0.161c0.268-0.089,0.523-0.189,0.809-0.21c0.208-0.014,0.413-0.025,0.619-0.057  c0.042-0.009,0.085-0.016,0.125-0.021C96.617,46.441,96.726,47.026,96.334,47.106z M97.17,45.696  c-0.649-0.405-1.46-0.076-2.168-0.049c-0.027,0-0.054-0.003-0.074-0.006c-0.064,0.018-0.126,0.039-0.186,0.062  c-0.371,0.138-0.63-0.373-0.267-0.559c0.326-0.17,0.605-0.432,0.964-0.541c0.15-0.044,0.306-0.063,0.457-0.028  c0.06-0.103,0.187-0.169,0.298-0.165c0.326,0.006,0.756,0.171,0.788,0.538c0,0.003,0,0.007-0.002,0.01  c0.179,0.042,0.359,0.114,0.541,0.224C97.859,45.394,97.509,45.907,97.17,45.696z"/><text x="0" y="115" fill="#000000" font-size="5px" font-weight="bold" font-family="'Helvetica Neue', Helvetica, Arial-Unicode, Arial, Sans-serif">Created by Aaron P. Brown</text><text x="0" y="120" fill="#000000" font-size="5px" font-weight="bold" font-family="'Helvetica Neue', Helvetica, Arial-Unicode, Arial, Sans-serif">from the Noun Project</text></svg>